<svg width="278" height="71" viewBox="0 0 278 71" fill="none" xmlns="http://www.w3.org/2000/svg">
<g id="Group 2">
<g id="Group 1">
<g id="wordmark">
<path d="M29.435 39V26.968H24.603V23.352H29.435V20.696C29.435 19.16 29.947 17.9333 30.971 17.016C31.995 16.0987 33.3497 15.64 35.035 15.64H40.187V19.16H35.131C34.619 19.16 34.203 19.3093 33.883 19.608C33.5843 19.8853 33.435 20.2693 33.435 20.76V23.352H40.187V26.968H33.435V39H29.435ZM54.3505 39C53.1985 39 52.1852 38.7653 51.3105 38.296C50.4572 37.8267 49.7852 37.1653 49.2945 36.312C48.8038 35.4373 48.5585 34.4347 48.5585 33.304V19.256H42.9265V15.64H52.5585V33.304C52.5585 33.944 52.7398 34.456 53.1025 34.84C53.4865 35.2027 53.9985 35.384 54.6385 35.384H59.9505V39H54.3505ZM70.85 39.32C68.61 39.32 66.85 38.7013 65.57 37.464C64.29 36.2053 63.65 34.4987 63.65 32.344V21.4H67.65V32.312C67.65 33.4427 67.9273 34.3173 68.482 34.936C69.0367 35.5333 69.826 35.832 70.85 35.832C71.8527 35.832 72.6313 35.5333 73.186 34.936C73.762 34.3173 74.05 33.4427 74.05 32.312V21.4H78.05V32.344C78.05 34.4987 77.3993 36.2053 76.098 37.464C74.7967 38.7013 73.0473 39.32 70.85 39.32ZM90.0695 39.32C88.5762 39.32 87.2748 39.032 86.1655 38.456C85.0562 37.88 84.1922 37.08 83.5735 36.056C82.9762 35.0107 82.6775 33.7947 82.6775 32.408V27.992C82.6775 26.6053 82.9762 25.4 83.5735 24.376C84.1922 23.3307 85.0562 22.52 86.1655 21.944C87.2748 21.368 88.5762 21.08 90.0695 21.08C91.5415 21.08 92.8215 21.368 93.9095 21.944C95.0188 22.52 95.8722 23.3307 96.4695 24.376C97.0882 25.4 97.3975 26.6053 97.3975 27.992V31.16H86.5495V32.408C86.5495 33.6453 86.8482 34.584 87.4455 35.224C88.0428 35.8427 88.9282 36.152 90.1015 36.152C90.9975 36.152 91.7228 36.0027 92.2775 35.704C92.8322 35.384 93.1842 34.9253 93.3335 34.328H97.2695C96.9708 35.8427 96.1602 37.0587 94.8375 37.976C93.5362 38.872 91.9468 39.32 90.0695 39.32ZM93.5255 28.92V27.96C93.5255 26.744 93.2375 25.816 92.6615 25.176C92.0855 24.5147 91.2215 24.184 90.0695 24.184C88.9175 24.184 88.0428 24.5147 87.4455 25.176C86.8482 25.8373 86.5495 26.776 86.5495 27.992V28.664L93.8135 28.6L93.5255 28.92ZM102.089 39V21.4H105.993V24.76H107.081L105.993 25.688C105.993 24.2373 106.409 23.1067 107.241 22.296C108.094 21.4853 109.257 21.08 110.729 21.08C112.457 21.08 113.833 21.656 114.857 22.808C115.902 23.96 116.425 25.5067 116.425 27.448V39H112.425V27.864C112.425 26.7973 112.148 25.976 111.593 25.4C111.038 24.824 110.26 24.536 109.257 24.536C108.276 24.536 107.497 24.8347 106.921 25.432C106.366 26.0293 106.089 26.8827 106.089 27.992V39H102.089ZM130.333 39C128.647 39 127.325 38.5307 126.365 37.592C125.426 36.6533 124.957 35.3627 124.957 33.72V25.016H120.189V21.4H124.957V16.44H128.989V21.4H135.741V25.016H128.989V33.72C128.989 34.8293 129.533 35.384 130.621 35.384H135.421V39H130.333ZM166.116 39.288C164.772 39.288 163.598 39.0747 162.596 38.648C161.593 38.2213 160.804 37.6347 160.228 36.888C159.673 36.12 159.374 35.224 159.332 34.2H163.332C163.374 34.7547 163.641 35.2027 164.132 35.544C164.644 35.8853 165.305 36.056 166.116 36.056H167.524C168.505 36.056 169.241 35.864 169.732 35.48C170.222 35.096 170.468 34.5733 170.468 33.912C170.468 33.2933 170.244 32.8133 169.796 32.472C169.369 32.1093 168.697 31.8747 167.78 31.768L165.604 31.448C163.598 31.1707 162.126 30.6373 161.188 29.848C160.249 29.0587 159.78 27.8747 159.78 26.296C159.78 24.6533 160.334 23.384 161.444 22.488C162.553 21.5707 164.185 21.112 166.34 21.112H167.556C169.518 21.112 171.086 21.5493 172.26 22.424C173.433 23.2987 174.062 24.472 174.148 25.944H170.148C170.084 25.4747 169.817 25.0907 169.348 24.792C168.9 24.4933 168.302 24.344 167.556 24.344H166.34C165.422 24.344 164.75 24.5147 164.324 24.856C163.918 25.176 163.716 25.656 163.716 26.296C163.716 26.8933 163.897 27.3413 164.26 27.64C164.622 27.9173 165.209 28.12 166.02 28.248L168.292 28.568C170.382 28.8667 171.918 29.432 172.9 30.264C173.902 31.0747 174.404 32.28 174.404 33.88C174.404 35.5867 173.817 36.92 172.644 37.88C171.492 38.8187 169.785 39.288 167.524 39.288H166.116ZM187.895 39C186.21 39 184.887 38.5307 183.927 37.592C182.988 36.6533 182.519 35.3627 182.519 33.72V25.016H177.751V21.4H182.519V16.44H186.551V21.4H193.303V25.016H186.551V33.72C186.551 34.8293 187.095 35.384 188.183 35.384H192.983V39H187.895ZM203.211 39.32C201.397 39.32 199.968 38.84 198.923 37.88C197.877 36.92 197.355 35.6293 197.355 34.008C197.355 32.28 197.931 30.9467 199.083 30.008C200.235 29.0693 201.867 28.6 203.979 28.6H208.363V27.096C208.363 26.2427 208.085 25.5813 207.531 25.112C206.976 24.6213 206.219 24.376 205.259 24.376C204.384 24.376 203.659 24.568 203.083 24.952C202.507 25.336 202.165 25.8587 202.059 26.52H198.155C198.347 24.856 199.093 23.5333 200.395 22.552C201.696 21.5707 203.36 21.08 205.387 21.08C207.541 21.08 209.237 21.624 210.475 22.712C211.733 23.7787 212.363 25.2293 212.363 27.064V39H208.491V35.928H207.851L208.491 35.064C208.491 36.3653 208.011 37.4 207.051 38.168C206.091 38.936 204.811 39.32 203.211 39.32ZM204.523 36.312C205.653 36.312 206.571 36.024 207.275 35.448C208 34.872 208.363 34.1253 208.363 33.208V31.064H204.043C203.232 31.064 202.581 31.2987 202.091 31.768C201.6 32.2373 201.355 32.856 201.355 33.624C201.355 34.456 201.632 35.1173 202.187 35.608C202.763 36.0773 203.541 36.312 204.523 36.312ZM224.446 39.32C222.953 39.32 221.641 39.0427 220.51 38.488C219.401 37.912 218.537 37.112 217.918 36.088C217.299 35.0427 216.99 33.816 216.99 32.408V27.992C216.99 26.5627 217.299 25.336 217.918 24.312C218.537 23.288 219.401 22.4987 220.51 21.944C221.641 21.368 222.953 21.08 224.446 21.08C226.665 21.08 228.435 21.656 229.758 22.808C231.081 23.9387 231.774 25.4853 231.838 27.448H227.838C227.774 26.5307 227.443 25.8267 226.846 25.336C226.27 24.824 225.47 24.568 224.446 24.568C223.379 24.568 222.537 24.8667 221.918 25.464C221.299 26.04 220.99 26.872 220.99 27.96V32.408C220.99 33.496 221.299 34.3387 221.918 34.936C222.537 35.5333 223.379 35.832 224.446 35.832C225.47 35.832 226.27 35.5867 226.846 35.096C227.443 34.584 227.774 33.8693 227.838 32.952H231.838C231.774 34.9147 231.081 36.472 229.758 37.624C228.435 38.7547 226.665 39.32 224.446 39.32ZM236.498 39V15.64H240.498V28.312H243.282L247.57 21.4H252.05L246.738 29.912L252.146 39H247.57L243.282 31.704H240.498V39H236.498Z" fill="#3D26C0"/>
<path d="M147.6 39.32C146.683 39.32 145.947 39.0533 145.392 38.52C144.859 37.9867 144.592 37.2613 144.592 36.344C144.592 35.4267 144.859 34.7013 145.392 34.168C145.947 33.6133 146.683 33.336 147.6 33.336C148.517 33.336 149.243 33.6133 149.776 34.168C150.331 34.7013 150.608 35.4267 150.608 36.344C150.608 37.2613 150.331 37.9867 149.776 38.52C149.243 39.0533 148.517 39.32 147.6 39.32Z" fill="#C8102E"/>
</g>
<path id="[" d="M7.40781 45.4V7.8H18.6078V12.4H12.4078V40.8H18.6078V45.4H7.40781Z" fill="#C8102E"/>
<path id="[_2" d="M270.592 45.4V7.8H259.392V12.4H265.592V40.8H259.392V45.4H270.592Z" fill="#C8102E"/>
<path id="tagline" d="M26.5073 67.14C25.8073 67.14 25.2006 67.0233 24.6873 66.79C24.174 66.5567 23.7773 66.2253 23.4973 65.796C23.2266 65.3573 23.0866 64.844 23.0773 64.256H24.8273C24.8273 64.676 24.9766 65.0073 25.2753 65.25C25.5833 65.4833 25.9986 65.6 26.5213 65.6C27.0253 65.6 27.4173 65.4833 27.6973 65.25C27.9866 65.0167 28.1313 64.6947 28.1313 64.284C28.1313 63.9387 28.0286 63.64 27.8233 63.388C27.6273 63.1267 27.3426 62.9493 26.9693 62.856L25.7933 62.534C24.9906 62.3287 24.37 61.96 23.9313 61.428C23.502 60.896 23.2873 60.252 23.2873 59.496C23.2873 58.9173 23.418 58.4133 23.6793 57.984C23.9406 57.5547 24.3093 57.2233 24.7853 56.99C25.2706 56.7567 25.84 56.64 26.4933 56.64C27.4826 56.64 28.2666 56.8967 28.8453 57.41C29.424 57.914 29.718 58.5953 29.7273 59.454H27.9773C27.9773 59.0527 27.8466 58.74 27.5853 58.516C27.324 58.2827 26.9553 58.166 26.4793 58.166C26.022 58.166 25.6673 58.2733 25.4153 58.488C25.1633 58.7027 25.0373 59.006 25.0373 59.398C25.0373 59.7527 25.1306 60.056 25.3173 60.308C25.5133 60.5507 25.7933 60.7233 26.1573 60.826L27.3753 61.162C28.1873 61.3673 28.808 61.736 29.2373 62.268C29.6666 62.7907 29.8813 63.4393 29.8813 64.214C29.8813 64.7927 29.7413 65.306 29.4613 65.754C29.1813 66.1927 28.7893 66.5333 28.2853 66.776C27.7813 67.0187 27.1886 67.14 26.5073 67.14ZM31.7518 67V56.78H35.1538C35.8352 56.78 36.4278 56.9107 36.9318 57.172C37.4452 57.4333 37.8418 57.802 38.1218 58.278C38.4018 58.7447 38.5418 59.2953 38.5418 59.93C38.5418 60.5553 38.3972 61.106 38.1078 61.582C37.8278 62.058 37.4358 62.4267 36.9318 62.688C36.4278 62.9493 35.8352 63.08 35.1538 63.08H33.5018V67H31.7518ZM33.5018 61.498H35.1538C35.6392 61.498 36.0265 61.358 36.3158 61.078C36.6145 60.7887 36.7638 60.406 36.7638 59.93C36.7638 59.4447 36.6145 59.062 36.3158 58.782C36.0265 58.502 35.6392 58.362 35.1538 58.362H33.5018V61.498ZM40.3004 67V56.78H46.4324V58.306H42.0224V60.966H45.9424V62.478H42.0224V65.474H46.4324V67H40.3004ZM47.9529 67L50.5289 56.78H52.7829L55.3729 67H53.5809L53.0209 64.522H50.3049L49.7449 67H47.9529ZM50.6269 63.094H52.6989L52.0829 60.35C51.9802 59.8927 51.8916 59.482 51.8169 59.118C51.7422 58.7447 51.6909 58.474 51.6629 58.306C51.6349 58.474 51.5836 58.7447 51.5089 59.118C51.4436 59.482 51.3549 59.888 51.2429 60.336L50.6269 63.094ZM56.9214 67V56.78H58.6714V60.91H59.8894L61.8074 56.78H63.7114L61.4294 61.68L63.8234 67H61.8774L59.8614 62.506H58.6714V67H56.9214ZM73.8785 67V56.78H80.0105V58.306H75.6005V60.966H79.5205V62.478H75.6005V65.474H80.0105V67H73.8785ZM82.049 67V56.78H84.191L87.033 65.04C87.005 64.7413 86.9723 64.3913 86.935 63.99C86.907 63.5793 86.8837 63.164 86.865 62.744C86.8463 62.3147 86.837 61.9413 86.837 61.624V56.78H88.433V67H86.291L83.477 58.74C83.4957 59.0107 83.519 59.3373 83.547 59.72C83.575 60.1027 83.5983 60.4947 83.617 60.896C83.6357 61.2973 83.645 61.666 83.645 62.002V67H82.049ZM93.6915 67.14C93.0382 67.14 92.4642 67.0187 91.9695 66.776C91.4842 66.524 91.1062 66.174 90.8355 65.726C90.5742 65.2687 90.4435 64.732 90.4435 64.116V59.664C90.4435 59.0387 90.5742 58.502 90.8355 58.054C91.1062 57.606 91.4842 57.2607 91.9695 57.018C92.4642 56.766 93.0382 56.64 93.6915 56.64C94.3542 56.64 94.9235 56.766 95.3995 57.018C95.8849 57.2607 96.2629 57.606 96.5335 58.054C96.8042 58.502 96.9395 59.0387 96.9395 59.664H95.1755C95.1755 59.1787 95.0449 58.81 94.7835 58.558C94.5315 58.306 94.1675 58.18 93.6915 58.18C93.2155 58.18 92.8469 58.306 92.5855 58.558C92.3242 58.81 92.1935 59.174 92.1935 59.65V64.116C92.1935 64.592 92.3242 64.9607 92.5855 65.222C92.8469 65.4833 93.2155 65.614 93.6915 65.614C94.1675 65.614 94.5315 65.4833 94.7835 65.222C95.0449 64.9607 95.1755 64.592 95.1755 64.116V63.08H93.4395V61.568H96.9395V64.116C96.9395 64.732 96.8042 65.2687 96.5335 65.726C96.2629 66.174 95.8849 66.524 95.3995 66.776C94.9235 67.0187 94.3542 67.14 93.6915 67.14ZM99.2721 67V56.78H101.022V65.376H105.362V67H99.2721ZM107.485 67V65.46H109.543V58.32H107.485V56.78H113.365V58.32H111.307V65.46H113.365V67H107.485ZM118.847 67.14C118.147 67.14 117.54 67.0233 117.027 66.79C116.514 66.5567 116.117 66.2253 115.837 65.796C115.566 65.3573 115.426 64.844 115.417 64.256H117.167C117.167 64.676 117.316 65.0073 117.615 65.25C117.923 65.4833 118.338 65.6 118.861 65.6C119.365 65.6 119.757 65.4833 120.037 65.25C120.326 65.0167 120.471 64.6947 120.471 64.284C120.471 63.9387 120.368 63.64 120.163 63.388C119.967 63.1267 119.682 62.9493 119.309 62.856L118.133 62.534C117.33 62.3287 116.71 61.96 116.271 61.428C115.842 60.896 115.627 60.252 115.627 59.496C115.627 58.9173 115.758 58.4133 116.019 57.984C116.28 57.5547 116.649 57.2233 117.125 56.99C117.61 56.7567 118.18 56.64 118.833 56.64C119.822 56.64 120.606 56.8967 121.185 57.41C121.764 57.914 122.058 58.5953 122.067 59.454H120.317C120.317 59.0527 120.186 58.74 119.925 58.516C119.664 58.2827 119.295 58.166 118.819 58.166C118.362 58.166 118.007 58.2733 117.755 58.488C117.503 58.7027 117.377 59.006 117.377 59.398C117.377 59.7527 117.47 60.056 117.657 60.308C117.853 60.5507 118.133 60.7233 118.497 60.826L119.715 61.162C120.527 61.3673 121.148 61.736 121.577 62.268C122.006 62.7907 122.221 63.4393 122.221 64.214C122.221 64.7927 122.081 65.306 121.801 65.754C121.521 66.1927 121.129 66.5333 120.625 66.776C120.121 67.0187 119.528 67.14 118.847 67.14ZM124.092 67V56.78H125.842V60.882H128.586V56.78H130.336V67H128.586V62.506H125.842V67H124.092ZM144.003 63.43C143.601 63.43 143.279 63.3133 143.037 63.08C142.803 62.8467 142.687 62.5293 142.687 62.128C142.687 61.7267 142.803 61.4093 143.037 61.176C143.279 60.9333 143.601 60.812 144.003 60.812C144.404 60.812 144.721 60.9333 144.955 61.176C145.197 61.4093 145.319 61.7267 145.319 62.128C145.319 62.5293 145.197 62.8467 144.955 63.08C144.721 63.3133 144.404 63.43 144.003 63.43ZM160.82 67.14C160.12 67.14 159.513 67.0233 159 66.79C158.486 66.5567 158.09 66.2253 157.81 65.796C157.539 65.3573 157.399 64.844 157.39 64.256H159.14C159.14 64.676 159.289 65.0073 159.588 65.25C159.896 65.4833 160.311 65.6 160.834 65.6C161.338 65.6 161.73 65.4833 162.01 65.25C162.299 65.0167 162.444 64.6947 162.444 64.284C162.444 63.9387 162.341 63.64 162.136 63.388C161.94 63.1267 161.655 62.9493 161.282 62.856L160.106 62.534C159.303 62.3287 158.682 61.96 158.244 61.428C157.814 60.896 157.6 60.252 157.6 59.496C157.6 58.9173 157.73 58.4133 157.992 57.984C158.253 57.5547 158.622 57.2233 159.098 56.99C159.583 56.7567 160.152 56.64 160.806 56.64C161.795 56.64 162.579 56.8967 163.158 57.41C163.736 57.914 164.03 58.5953 164.04 59.454H162.29C162.29 59.0527 162.159 58.74 161.898 58.516C161.636 58.2827 161.268 58.166 160.792 58.166C160.334 58.166 159.98 58.2733 159.728 58.488C159.476 58.7027 159.35 59.006 159.35 59.398C159.35 59.7527 159.443 60.056 159.63 60.308C159.826 60.5507 160.106 60.7233 160.47 60.826L161.688 61.162C162.5 61.3673 163.12 61.736 163.55 62.268C163.979 62.7907 164.194 63.4393 164.194 64.214C164.194 64.7927 164.054 65.306 163.774 65.754C163.494 66.1927 163.102 66.5333 162.598 66.776C162.094 67.0187 161.501 67.14 160.82 67.14ZM169.186 67.14C168.533 67.14 167.964 67.0187 167.478 66.776C167.002 66.524 166.634 66.174 166.372 65.726C166.12 65.2687 165.994 64.732 165.994 64.116V59.664C165.994 59.048 166.12 58.516 166.372 58.068C166.634 57.6107 167.002 57.2607 167.478 57.018C167.964 56.766 168.533 56.64 169.186 56.64C169.849 56.64 170.418 56.766 170.894 57.018C171.37 57.2607 171.734 57.6107 171.986 58.068C172.248 58.516 172.378 59.0433 172.378 59.65V64.116C172.378 64.732 172.248 65.2687 171.986 65.726C171.734 66.174 171.37 66.524 170.894 66.776C170.418 67.0187 169.849 67.14 169.186 67.14ZM169.186 65.6C169.662 65.6 170.022 65.474 170.264 65.222C170.507 64.9607 170.628 64.592 170.628 64.116V59.664C170.628 59.1787 170.507 58.81 170.264 58.558C170.022 58.306 169.662 58.18 169.186 58.18C168.71 58.18 168.351 58.306 168.108 58.558C167.866 58.81 167.744 59.1787 167.744 59.664V64.116C167.744 64.592 167.866 64.9607 168.108 65.222C168.36 65.474 168.72 65.6 169.186 65.6ZM177.581 67.14C176.582 67.14 175.798 66.8693 175.229 66.328C174.669 65.7773 174.389 65.0307 174.389 64.088V56.78H176.153V64.074C176.153 64.5593 176.274 64.9373 176.517 65.208C176.76 65.4787 177.114 65.614 177.581 65.614C178.038 65.614 178.388 65.4787 178.631 65.208C178.883 64.9373 179.009 64.5593 179.009 64.074V56.78H180.773V64.088C180.773 65.0307 180.493 65.7773 179.933 66.328C179.373 66.8693 178.589 67.14 177.581 67.14ZM182.783 67V56.78H184.925L187.767 65.04C187.739 64.7413 187.707 64.3913 187.669 63.99C187.641 63.5793 187.618 63.164 187.599 62.744C187.581 62.3147 187.571 61.9413 187.571 61.624V56.78H189.167V67H187.025L184.211 58.74C184.23 59.0107 184.253 59.3373 184.281 59.72C184.309 60.1027 184.333 60.4947 184.351 60.896C184.37 61.2973 184.379 61.666 184.379 62.002V67H182.783ZM191.22 67V56.78H194.258C194.949 56.78 195.546 56.9107 196.05 57.172C196.563 57.4333 196.96 57.802 197.24 58.278C197.52 58.754 197.66 59.3187 197.66 59.972V63.794C197.66 64.438 197.52 65.0027 197.24 65.488C196.96 65.964 196.563 66.3373 196.05 66.608C195.546 66.8693 194.949 67 194.258 67H191.22ZM192.97 65.39H194.258C194.762 65.39 195.163 65.25 195.462 64.97C195.761 64.6807 195.91 64.2887 195.91 63.794V59.972C195.91 59.4867 195.761 59.104 195.462 58.824C195.163 58.5347 194.762 58.39 194.258 58.39H192.97V65.39ZM208.037 67V56.78H211.173C212.162 56.78 212.946 57.018 213.525 57.494C214.104 57.9607 214.393 58.6 214.393 59.412C214.393 59.8693 214.29 60.266 214.085 60.602C213.88 60.938 213.6 61.1993 213.245 61.386C212.9 61.5727 212.498 61.666 212.041 61.666V61.61C212.536 61.6007 212.974 61.694 213.357 61.89C213.749 62.0767 214.057 62.3567 214.281 62.73C214.514 63.1033 214.631 63.556 214.631 64.088C214.631 64.676 214.496 65.1893 214.225 65.628C213.954 66.0667 213.572 66.4073 213.077 66.65C212.592 66.8833 212.008 67 211.327 67H208.037ZM209.745 65.544H211.215C211.728 65.544 212.13 65.4087 212.419 65.138C212.718 64.858 212.867 64.48 212.867 64.004C212.867 63.528 212.718 63.1453 212.419 62.856C212.13 62.5573 211.728 62.408 211.215 62.408H209.745V65.544ZM209.745 60.994H211.145C211.612 60.994 211.976 60.8727 212.237 60.63C212.508 60.378 212.643 60.0373 212.643 59.608C212.643 59.1787 212.508 58.8427 212.237 58.6C211.976 58.3573 211.612 58.236 211.145 58.236H209.745V60.994ZM216.418 67V56.78H219.652C220.333 56.78 220.921 56.906 221.416 57.158C221.92 57.41 222.312 57.7647 222.592 58.222C222.872 58.67 223.012 59.202 223.012 59.818C223.012 60.49 222.839 61.0827 222.494 61.596C222.158 62.1093 221.7 62.4733 221.122 62.688L223.152 67H221.192L219.414 62.94H218.168V67H216.418ZM218.168 61.4H219.652C220.146 61.4 220.534 61.2647 220.814 60.994C221.094 60.7233 221.234 60.35 221.234 59.874C221.234 59.3887 221.094 59.0107 220.814 58.74C220.534 58.46 220.146 58.32 219.652 58.32H218.168V61.4ZM225.008 67V65.46H227.066V58.32H225.008V56.78H230.888V58.32H228.83V65.46H230.888V67H225.008ZM235.461 67V58.404H232.787V56.78H239.899V58.404H237.225V67H235.461ZM241.797 67V65.46H243.855V58.32H241.797V56.78H247.677V58.32H245.619V65.46H247.677V67H241.797ZM253.16 67.14C252.46 67.14 251.853 67.0233 251.34 66.79C250.826 66.5567 250.43 66.2253 250.15 65.796C249.879 65.3573 249.739 64.844 249.73 64.256H251.48C251.48 64.676 251.629 65.0073 251.928 65.25C252.236 65.4833 252.651 65.6 253.174 65.6C253.678 65.6 254.07 65.4833 254.35 65.25C254.639 65.0167 254.784 64.6947 254.784 64.284C254.784 63.9387 254.681 63.64 254.476 63.388C254.28 63.1267 253.995 62.9493 253.622 62.856L252.446 62.534C251.643 62.3287 251.022 61.96 250.584 61.428C250.154 60.896 249.94 60.252 249.94 59.496C249.94 58.9173 250.07 58.4133 250.332 57.984C250.593 57.5547 250.962 57.2233 251.438 56.99C251.923 56.7567 252.492 56.64 253.146 56.64C254.135 56.64 254.919 56.8967 255.498 57.41C256.076 57.914 256.37 58.5953 256.38 59.454H254.63C254.63 59.0527 254.499 58.74 254.238 58.516C253.976 58.2827 253.608 58.166 253.132 58.166C252.674 58.166 252.32 58.2733 252.068 58.488C251.816 58.7027 251.69 59.006 251.69 59.398C251.69 59.7527 251.783 60.056 251.97 60.308C252.166 60.5507 252.446 60.7233 252.81 60.826L254.028 61.162C254.84 61.3673 255.46 61.736 255.89 62.268C256.319 62.7907 256.534 63.4393 256.534 64.214C256.534 64.7927 256.394 65.306 256.114 65.754C255.834 66.1927 255.442 66.5333 254.938 66.776C254.434 67.0187 253.841 67.14 253.16 67.14ZM258.404 67V56.78H260.154V60.882H262.898V56.78H264.648V67H262.898V62.506H260.154V67H258.404Z" fill="#3D26C0"/>
</g>
</g>
</svg>
